# Blender v2.83.0 OBJ File: ''
# www.blender.org
mtllib bowtie.mtl
o Cube
v 2.000000 -1.000000 -1.000000
v -2.000000 -1.000000 -1.000000
v 2.000000 -1.000000 1.000000
v -2.000000 -1.000000 1.000000
v 2.000000 1.000000 -1.000000
v -2.000000 1.000000 -1.000000
v 2.000000 1.000000 1.000000
v -2.000000 1.000000 1.000000
v 0.000000 0.000000 0.000000
vt 0.625000 0.500000
vt 0.875000 0.500000
vt 0.875000 0.750000
vt 0.625000 0.750000
vt 0.500000 0.750000
vt 0.625000 1.000000
vt 0.500000 0.000000
vt 0.625000 0.000000
vt 0.625000 0.250000
vt 0.125000 0.500000
vt 0.375000 0.500000
vt 0.375000 0.750000
vt 0.125000 0.750000
vt 0.500000 0.500000
vt 0.500000 0.250000
vt 0.375000 0.250000
vt 0.375000 0.000000
vt 0.500000 1.000000
vt 0.375000 1.000000
vn 1.0000 0.0000 0.0000
vn -0.4472 0.0000 0.8944
vn -0.4472 0.8944 0.0000
vn -1.0000 0.0000 0.0000
vn -0.4472 -0.8944 0.0000
vn -0.4472 0.0000 -0.8944
vn 0.4472 0.0000 -0.8944
vn 0.4472 -0.8944 0.0000
vn 0.4472 0.8944 0.0000
vn 0.4472 0.0000 0.8944
usemtl Material
s off
f 1/1/1 5/2/1 7/3/1 3/4/1
f 9/5/2 3/4/2 7/6/2
f 9/7/3 7/8/3 5/9/3
f 6/10/4 2/11/4 4/12/4 8/13/4
f 9/14/5 1/1/5 3/4/5
f 9/15/6 5/9/6 1/1/6
f 6/16/7 9/14/7 2/11/7
f 2/11/8 9/5/8 4/12/8
f 8/17/9 9/15/9 6/16/9
f 4/12/10 9/18/10 8/19/10
